<svg width="295" height="322" viewBox="0 0 295 322" fill="none" xmlns="http://www.w3.org/2000/svg">
<g filter="url(#filter0_i_29_45)">
<path d="M288.703 116.058C299.933 154.373 296.036 195.748 277.871 231.081C259.706 266.414 228.76 292.811 191.841 304.465C154.922 316.119 115.054 312.075 81.0082 293.224C46.9621 274.372 21.5265 242.256 10.297 203.942L80.5 174.5L113 163L147.5 152L179.5 141.5L197.5 135.5L215 131L231 127L288.703 116.058Z" fill="white"/>
</g>
<path d="M148.108 153.905L148.116 153.903L148.124 153.9L180.124 143.4L180.132 143.397L198.066 137.42L215.485 132.94L215.498 132.937L231.429 128.954L287.283 118.363C297.749 155.697 293.747 195.827 276.092 230.166C258.164 265.039 227.634 291.069 191.239 302.558C154.846 314.046 115.546 310.062 81.977 291.474C48.9125 273.166 24.063 242.158 12.7287 205.09L81.2209 176.366L113.638 164.896L148.108 153.905Z" stroke="black" stroke-width="4"/>
<path d="M221.347 132.46L286.507 119.232C288.94 126.834 288.705 135.436 286.912 144.036C285.025 153.089 281.435 162.026 277.577 169.581C269.942 184.53 257.563 195.26 243.222 199.502C228.894 203.74 213.697 201.182 200.95 192.344C188.408 183.647 179.231 169.55 175.426 153.026L188.729 141.356L221.347 132.46Z" fill="white" stroke="black" stroke-width="3"/>
<path d="M160.463 149.927L196.489 138.879C199.292 148.623 202.051 162.292 201.141 171.732C200.174 181.764 197.267 191.504 192.588 200.395C187.908 209.286 181.548 217.155 173.871 223.552C166.194 229.949 157.35 234.75 147.845 237.681C138.34 240.612 128.359 241.616 118.472 240.636C108.584 239.657 98.9836 236.712 90.2172 231.971C81.4508 227.229 73.6901 220.782 67.3789 212.998C61.2108 205.39 54.8894 197.338 51.8481 188.357L77.0401 177.9L104.984 167.92L160.451 149.931L160.463 149.927Z" fill="white" stroke="black" stroke-width="3"/>
<path d="M143.413 258.351L143.987 258.595L144.565 258.36C164.611 250.208 184.747 248.194 197.872 250.595C204.495 251.806 208.993 254.077 211.002 256.889C211.97 258.245 212.386 259.756 212.182 261.464C211.973 263.208 211.105 265.259 209.309 267.603C206.286 271.549 198.992 277.032 187.837 281.534C176.731 286.015 161.922 289.471 144 289.471C126.005 289.471 107.547 286.972 93.6292 282.952C86.6608 280.94 80.9142 278.57 76.9441 275.997C72.8923 273.371 71.0975 270.808 71.0975 268.515C71.0975 262.277 73.3015 257.697 77.0617 254.467C80.8718 251.194 86.4161 249.193 93.2563 248.457C106.945 246.985 125.279 250.645 143.413 258.351Z" fill="black" stroke="black" stroke-width="3"/>
<path d="M146.19 284.98C145.922 285.794 145.164 286.608 143.668 287.303C142.179 287.995 140.078 288.51 137.373 288.781C131.969 289.324 124.368 288.88 114.959 287.187C101.232 284.717 93.1848 282.617 88.5715 280.213C86.2887 279.023 84.9253 277.797 84.1183 276.485C83.3203 275.187 83.0042 273.705 83 271.874C83.5721 264.392 89.2632 259.356 96.1088 258.235C102.94 257.116 110.872 259.926 115.705 268.238C117.572 271.448 121.074 272.83 124.82 273.518C127.49 274.009 130.472 274.175 133.31 274.332C134.441 274.395 135.55 274.457 136.606 274.537C138.494 274.681 140.233 274.883 141.739 275.243C143.251 275.604 144.455 276.108 145.321 276.81C146.16 277.489 146.723 278.383 146.921 279.642C147.125 280.935 146.952 282.664 146.19 284.98Z" fill="#C51919" stroke="black" stroke-width="2"/>
<path d="M245.98 147.95C242.782 145.197 239.071 143.828 235.316 144.017C231.56 144.206 227.929 145.944 224.882 149.011C221.835 152.077 219.508 156.336 218.196 161.247C216.884 166.158 216.645 171.502 217.511 176.602C218.376 181.703 220.306 186.331 223.057 189.901C225.809 193.471 229.257 195.823 232.967 196.66C236.676 197.497 240.481 196.781 243.898 194.602C247.316 192.423 250.194 188.88 252.168 184.42L236 170.5L245.98 147.95Z" fill="black"/>
<path d="M161.78 181.71C157.708 178.547 152.948 176.909 148.103 177.004C143.258 177.098 138.545 178.921 134.56 182.24C130.576 185.56 127.498 190.228 125.716 195.654C123.934 201.079 123.529 207.02 124.551 212.723C125.573 218.426 127.977 223.636 131.459 227.695C134.94 231.753 139.343 234.477 144.11 235.523C148.877 236.568 153.795 235.888 158.241 233.568C162.687 231.248 166.462 227.393 169.089 222.49L148.5 206.5L161.78 181.71Z" fill="black"/>
<path d="M227 213C227 220.469 219.895 227 210.5 227C201.105 227 194 220.469 194 213C194 205.531 201.105 199 210.5 199C219.895 199 227 205.531 227 213Z" fill="#C51919" stroke="black" stroke-width="4"/>
<mask id="path-10-inside-1_29_45" fill="white">
<path d="M93.8559 296.014C90.1974 302.695 85.0606 308.452 78.8376 312.846C72.6147 317.239 65.4702 320.153 57.9495 321.364C50.4289 322.575 42.7309 322.052 35.4433 319.834C28.1557 317.616 21.4712 313.763 15.9001 308.568C10.329 303.373 6.01851 296.973 3.29783 289.858C0.577144 282.743 -0.481843 275.1 0.201712 267.513C0.885267 259.926 3.29329 252.596 7.24195 246.082C11.1906 239.568 16.5755 234.042 22.9855 229.926L38.1144 253.489C35.2942 255.3 32.925 257.731 31.1878 260.597C29.4505 263.463 28.391 266.688 28.0903 270.026C27.7895 273.364 28.2555 276.727 29.4525 279.857C30.6495 282.987 32.5459 285.803 34.9971 288.089C37.4482 290.374 40.3892 292.07 43.5955 293.046C46.8018 294.021 50.1887 294.252 53.4975 293.719C56.8064 293.186 59.9498 291.904 62.6877 289.971C65.4256 288.038 67.6856 285.505 69.2953 282.565L93.8559 296.014Z"/>
</mask>
<g filter="url(#filter1_i_29_45)">
<path d="M93.8559 296.014C90.1974 302.695 85.0606 308.452 78.8376 312.846C72.6147 317.239 65.4702 320.153 57.9495 321.364C50.4289 322.575 42.7309 322.052 35.4433 319.834C28.1557 317.616 21.4712 313.763 15.9001 308.568C10.329 303.373 6.01851 296.973 3.29783 289.858C0.577144 282.743 -0.481843 275.1 0.201712 267.513C0.885267 259.926 3.29329 252.596 7.24195 246.082C11.1906 239.568 16.5755 234.042 22.9855 229.926L38.1144 253.489C35.2942 255.3 32.925 257.731 31.1878 260.597C29.4505 263.463 28.391 266.688 28.0903 270.026C27.7895 273.364 28.2555 276.727 29.4525 279.857C30.6495 282.987 32.5459 285.803 34.9971 288.089C37.4482 290.374 40.3892 292.07 43.5955 293.046C46.8018 294.021 50.1887 294.252 53.4975 293.719C56.8064 293.186 59.9498 291.904 62.6877 289.971C65.4256 288.038 67.6856 285.505 69.2953 282.565L93.8559 296.014Z" fill="white"/>
</g>
<path d="M93.8559 296.014C90.1974 302.695 85.0606 308.452 78.8376 312.846C72.6147 317.239 65.4702 320.153 57.9495 321.364C50.4289 322.575 42.7309 322.052 35.4433 319.834C28.1557 317.616 21.4712 313.763 15.9001 308.568C10.329 303.373 6.01851 296.973 3.29783 289.858C0.577144 282.743 -0.481843 275.1 0.201712 267.513C0.885267 259.926 3.29329 252.596 7.24195 246.082C11.1906 239.568 16.5755 234.042 22.9855 229.926L38.1144 253.489C35.2942 255.3 32.925 257.731 31.1878 260.597C29.4505 263.463 28.391 266.688 28.0903 270.026C27.7895 273.364 28.2555 276.727 29.4525 279.857C30.6495 282.987 32.5459 285.803 34.9971 288.089C37.4482 290.374 40.3892 292.07 43.5955 293.046C46.8018 294.021 50.1887 294.252 53.4975 293.719C56.8064 293.186 59.9498 291.904 62.6877 289.971C65.4256 288.038 67.6856 285.505 69.2953 282.565L93.8559 296.014Z" stroke="black" stroke-width="6" mask="url(#path-10-inside-1_29_45)"/>
<path d="M116.609 267.917C116.881 267.97 117.122 268.124 117.286 268.347L119.781 271.75L121.554 274.746C121.846 275.24 122 275.803 122 276.376V277.846C122 278.517 121.526 279.095 120.868 279.226V279.226C120.111 279.378 119.373 278.89 119.214 278.134L118.786 276.086C118.705 275.698 118.559 275.327 118.355 274.988L116.531 271.967L115.39 269.457C115.018 268.639 115.727 267.742 116.609 267.917V267.917Z" fill="black"/>
<path d="M174 106.815C174 137.742 153.5 142 127.5 149.315C99.3335 149.315 82 117.5 91 86C106.5 90 118.5 96.3145 118.5 57.3145C137.5 68.3145 174 75.8866 174 106.815Z" fill="white"/>
<path d="M140.919 128.046L140.919 128.046C150.101 123.204 155.905 113.506 154.663 104.95L154.663 104.95C154.564 104.271 154.79 103.533 155.317 102.903C155.577 102.591 155.902 102.317 156.275 102.097C156.647 101.877 157.057 101.717 157.481 101.625C157.906 101.534 158.334 101.513 158.743 101.564C159.151 101.615 159.529 101.736 159.856 101.916C160.184 102.097 160.453 102.335 160.654 102.613C160.853 102.891 160.981 103.206 161.03 103.542C161.749 108.914 160.305 115.185 157.214 120.372C154.127 125.551 149.545 129.4 143.731 132.532C143.566 132.616 143.396 132.691 143.222 132.756C142.436 133.044 141.596 133.079 140.872 132.861C140.149 132.643 139.6 132.192 139.319 131.612C139.038 131.033 139.034 130.347 139.324 129.685C139.615 129.021 140.182 128.433 140.919 128.046ZM86.9048 83.5289L86.9054 83.5273C87.063 83.1506 87.3109 82.7927 87.6353 82.4793C87.9596 82.166 88.3515 81.9058 88.785 81.7175C89.2185 81.5292 89.6817 81.4181 90.1427 81.3911C90.6039 81.364 91.0501 81.4218 91.4519 81.558L91.4534 81.5585L110.179 87.7742L110.484 87.8755L110.507 87.5548L112.877 54.4152C112.907 53.9888 113.057 53.5553 113.321 53.1523C113.585 52.7493 113.953 52.3904 114.396 52.1086C114.839 51.8269 115.343 51.6321 115.862 51.5411C116.382 51.4501 116.901 51.4662 117.373 51.5851C124.786 53.4565 137.381 57.2721 149.316 63.9084C161.256 70.5471 172.502 79.9891 177.273 93.0975C180.982 103.286 179.581 114.876 173.356 125.32C167.13 135.766 156.59 144.204 144.05 148.768C131.511 153.333 118.013 153.643 106.529 149.643C95.0465 145.644 86.524 137.666 82.8156 127.477C78.3436 115.19 79.7018 100.411 86.9048 83.5289ZM119.258 58.0191L118.962 57.9342L118.94 58.2416L116.55 91.669L116.55 91.6692C116.518 92.1133 116.357 92.5649 116.074 92.9814C115.79 93.3981 115.395 93.7644 114.922 94.0439C114.449 94.3234 113.917 94.5054 113.374 94.5734C112.832 94.6413 112.3 94.5924 111.827 94.4351L91.9137 87.8056L91.6877 87.7303L91.6017 87.9525C86.0621 102.255 85.1725 114.808 88.9686 125.238C92.2134 134.153 99.6627 141.11 109.657 144.591C119.65 148.072 131.375 147.796 142.255 143.836C153.135 139.876 162.294 132.55 167.712 123.461C173.13 114.37 174.365 104.252 171.12 95.337C167.127 84.3659 158.059 76.1575 148.059 70.1367C138.056 64.1141 127.091 60.2633 119.258 58.0191Z" fill="#C51919" stroke="black" stroke-width="0.5"/>
<path d="M140.364 127.483L140.365 127.482C148.89 123.012 154.361 114.097 153.242 106.202L153.242 106.202C153.168 105.679 153.345 105.086 153.791 104.56C154.011 104.3 154.288 104.069 154.606 103.882C154.925 103.695 155.276 103.558 155.638 103.479C156.001 103.4 156.365 103.381 156.709 103.422C157.053 103.462 157.366 103.56 157.633 103.704C157.899 103.849 158.113 104.036 158.27 104.251C158.425 104.466 158.523 104.708 158.561 104.967C159.184 109.761 158.013 114.834 155.177 119.503C152.341 124.172 147.98 128.205 142.672 131.047C142.53 131.119 142.384 131.183 142.234 131.239C141.56 131.487 140.848 131.516 140.244 131.34C139.643 131.164 139.21 130.804 138.994 130.36C138.779 129.918 138.772 129.383 139.013 128.848C139.255 128.307 139.731 127.813 140.364 127.483ZM91.1124 87.2777L91.1138 87.2745C91.2446 86.9691 91.4518 86.6731 91.7274 86.4102C92.0029 86.1473 92.3374 85.9266 92.7088 85.7658C93.0802 85.6049 93.476 85.5093 93.8681 85.4845C94.2604 85.4597 94.6353 85.5064 94.9683 85.6163L94.9713 85.6172L112.134 91.1565L112.737 91.351L112.786 90.7195L115.128 60.6741C115.155 60.3392 115.277 59.9898 115.498 59.6575C115.719 59.325 116.031 59.0237 116.41 58.7845C116.789 58.5454 117.22 58.3788 117.664 58.2997C118.108 58.2207 118.547 58.2326 118.941 58.3285C125.727 59.9847 137.247 63.3728 148.144 69.3112C159.051 75.2547 169.26 83.7131 173.542 95.4762C176.863 104.601 175.538 115.024 169.806 124.461C164.072 133.902 154.403 141.566 142.917 145.746C131.43 149.927 119.097 150.271 108.637 146.725C98.1793 143.181 90.4645 136.047 87.1434 126.923C83.1315 115.9 84.4301 102.576 91.1124 87.2777ZM120.77 63.6206L120.185 63.4581L120.138 64.0635L117.775 94.3698L117.775 94.3702C117.748 94.719 117.617 95.0834 117.379 95.4275C117.141 95.7718 116.806 96.0798 116.401 96.3175C115.996 96.555 115.54 96.711 115.078 96.7706C114.615 96.8303 114.167 96.7909 113.775 96.664C113.775 96.664 113.775 96.664 113.775 96.664L95.523 90.7557L95.0773 90.6114L94.9044 91.0469C89.7312 104.074 88.8326 115.528 92.2971 125.047C95.2647 133.2 102.141 139.522 111.367 142.649C120.589 145.775 131.419 145.462 141.48 141.8C151.541 138.138 160.039 131.417 165.095 123.094C170.152 114.768 171.356 105.505 168.388 97.352C164.745 87.3428 156.397 79.907 147.22 74.4859C138.036 69.061 127.963 65.6184 120.77 63.6206Z" fill="black" stroke="black"/>
<defs>
<filter id="filter0_i_29_45" x="10.297" y="116.058" width="284.703" height="198.942" filterUnits="userSpaceOnUse" color-interpolation-filters="sRGB">
<feFlood flood-opacity="0" result="BackgroundImageFix"/>
<feBlend mode="normal" in="SourceGraphic" in2="BackgroundImageFix" result="shape"/>
<feColorMatrix in="SourceAlpha" type="matrix" values="0 0 0 0 0 0 0 0 0 0 0 0 0 0 0 0 0 0 127 0" result="hardAlpha"/>
<feOffset dy="4"/>
<feGaussianBlur stdDeviation="2"/>
<feComposite in2="hardAlpha" operator="arithmetic" k2="-1" k3="1"/>
<feColorMatrix type="matrix" values="0 0 0 0 0 0 0 0 0 0 0 0 0 0 0 0 0 0 0.25 0"/>
<feBlend mode="normal" in2="shape" result="effect1_innerShadow_29_45"/>
</filter>
<filter id="filter1_i_29_45" x="0" y="229.926" width="93.8559" height="96.0739" filterUnits="userSpaceOnUse" color-interpolation-filters="sRGB">
<feFlood flood-opacity="0" result="BackgroundImageFix"/>
<feBlend mode="normal" in="SourceGraphic" in2="BackgroundImageFix" result="shape"/>
<feColorMatrix in="SourceAlpha" type="matrix" values="0 0 0 0 0 0 0 0 0 0 0 0 0 0 0 0 0 0 127 0" result="hardAlpha"/>
<feOffset dy="4"/>
<feGaussianBlur stdDeviation="2"/>
<feComposite in2="hardAlpha" operator="arithmetic" k2="-1" k3="1"/>
<feColorMatrix type="matrix" values="0 0 0 0 0 0 0 0 0 0 0 0 0 0 0 0 0 0 0.25 0"/>
<feBlend mode="normal" in2="shape" result="effect1_innerShadow_29_45"/>
</filter>
</defs>
</svg>
